<svg width="340" height="320" viewBox="0 0 340 320" fill="none" xmlns="http://www.w3.org/2000/svg">
<path opacity="0.2" d="M151.261 84.3503L68.2964 37.4206L67.9114 80.4235L150.876 127.353L151.261 84.3503Z" fill="url(#paint0_linear_21_356)"/>
<path opacity="0.15" d="M89.4322 59.7882L114.379 73.9172L114.341 79.076L89.3937 64.947L89.4322 59.7882Z" fill="white"/>
<path opacity="0.15" d="M89.3552 70.1443L142.483 100.212L142.445 105.448L89.3167 75.3802L89.3552 70.1443Z" fill="white"/>
<path d="M85.0049 61.3667C84.9664 64.9086 82.849 66.6025 80.2311 65.1011C77.6132 63.6381 75.5342 59.5573 75.5727 56.0154C75.6112 52.4736 77.7286 50.7796 80.3465 52.2811C82.9645 53.744 85.0434 57.8249 85.0049 61.3667Z" fill="#0033FF"/>
<path opacity="0.2" d="M339.904 276.997L256.978 230.067L256.593 273.07L339.557 320L339.904 276.997Z" fill="url(#paint1_linear_21_356)"/>
<path opacity="0.15" d="M278.114 252.435L303.061 266.564L303.022 271.723L278.075 257.594L278.114 252.435Z" fill="white"/>
<path opacity="0.15" d="M278.036 262.791L331.164 292.859L331.126 298.094L277.998 268.027L278.036 262.791Z" fill="white"/>
<path d="M273.686 254.013C273.648 257.555 271.53 259.249 268.912 257.748C266.294 256.285 264.216 252.204 264.254 248.662C264.293 245.12 266.41 243.426 269.028 244.928C271.646 246.391 273.725 250.472 273.686 254.013Z" fill="#0033FF"/>
<path opacity="0.1" d="M243.157 1.69394C227.526 4.73532 192.377 8.66218 177.055 0C177.17 61.2897 192.185 148.258 241.27 219.981C291.126 204.235 307.488 135.053 308.643 74.4947C293.32 65.794 258.595 22.3292 243.157 1.69394Z" fill="url(#paint2_linear_21_356)"/>
<path opacity="0.3" d="M224.062 14.3985C208.431 17.4399 173.282 21.3667 157.959 12.7045C158.075 73.9942 173.089 160.962 222.175 232.685C272.031 216.939 288.393 147.719 289.548 87.1992C274.225 78.4986 239.499 35.0337 224.062 14.3985Z" fill="url(#paint3_linear_21_356)"/>
<path opacity="0.4" d="M289.586 87.1607C274.225 78.46 239.538 35.0337 224.1 14.3984L222.214 232.647C272.031 216.939 288.393 147.719 289.586 87.1607Z" fill="url(#paint4_linear_21_356)"/>
<path opacity="0.1" d="M140.712 130.202L217.979 172.743L218.017 314.687L140.751 272.185L140.712 130.202Z" fill="url(#paint5_linear_21_356)"/>
<path opacity="0.2" d="M150.722 213.167L208.97 245.236L209.124 296.131L150.876 264.062L150.722 213.167Z" fill="url(#paint6_linear_21_356)"/>
<path opacity="0.15" d="M151.761 179.288L178.71 194.11V199.346L151.761 184.524V179.288Z" fill="white"/>
<path opacity="0.15" d="M151.877 189.682L178.826 204.504V209.74L151.877 194.918V189.682Z" fill="white"/>
<path opacity="0.15" d="M151.838 199.692L202.964 227.834V233.07L151.838 204.928V199.692Z" fill="white"/>
<path opacity="0.2" d="M140.712 130.202L217.979 172.743L218.056 197.267L140.751 154.764L140.712 130.202Z" fill="url(#paint7_linear_21_356)"/>
<path opacity="0.2" d="M160.039 153.263C160.039 156.959 157.844 158.768 155.149 157.267C152.454 155.765 150.221 151.569 150.221 147.834C150.221 144.139 152.416 142.329 155.111 143.831C157.844 145.332 160.039 149.567 160.039 153.263Z" fill="white"/>
<path d="M186.603 212.705L186.526 191.607L238.922 220.443L238.999 241.54L186.603 212.705Z" fill="#0033FF"/>
<path opacity="0.3" d="M126.776 123.619L12.2041 57.5168L12.2426 117.228L116.689 177.517L126.814 192.493L126.776 123.619Z" fill="url(#paint8_linear_21_356)"/>
<path d="M0 80.77V64.5621L43.2339 89.5091V105.717L0 80.77Z" fill="#00FFC2"/>
<path opacity="0.15" d="M97.3244 121.155L72.2233 106.68V111.915L97.3244 126.391V121.155Z" fill="white"/>
<path opacity="0.15" d="M97.3244 131.665L48.9317 103.754V108.989L97.3244 136.901V131.665Z" fill="white"/>
<path opacity="0.15" d="M97.3243 142.137L38.691 108.296V113.532L97.3243 147.372V142.137Z" fill="white"/>
<path d="M103.484 130.202C103.484 135.13 106.41 140.789 109.99 142.868C113.571 144.947 116.497 142.637 116.497 137.709C116.497 132.782 113.571 127.122 109.99 125.043C106.41 122.964 103.484 125.274 103.484 130.202Z" fill="#00FFC2"/>
<path opacity="0.2" d="M89.8942 185.14C92.2041 186.448 94.0521 189.682 94.0521 192.339V204.081L101.829 208.547C104.139 209.856 105.987 213.089 105.987 215.746C105.987 218.402 104.139 219.48 101.829 218.171L94.0521 213.705V225.448C94.0521 228.104 92.2041 229.182 89.8942 227.873C87.5843 226.564 85.7364 223.33 85.7364 220.674V208.932L77.9597 204.427C75.6498 203.118 73.8018 199.884 73.8018 197.228C73.8018 194.572 75.6498 193.494 77.9597 194.803L85.7364 199.268V187.526C85.7364 184.909 87.5843 183.831 89.8942 185.14Z" fill="url(#paint9_linear_21_356)"/>
<defs>
<linearGradient id="paint0_linear_21_356" x1="118.842" y1="66.0116" x2="100.321" y2="98.7428" gradientUnits="userSpaceOnUse">
<stop stop-color="white"/>
<stop offset="1" stop-color="white" stop-opacity="0"/>
</linearGradient>
<linearGradient id="paint1_linear_21_356" x1="307.515" y1="258.662" x2="288.994" y2="291.393" gradientUnits="userSpaceOnUse">
<stop stop-color="white"/>
<stop offset="1" stop-color="white" stop-opacity="0"/>
</linearGradient>
<linearGradient id="paint2_linear_21_356" x1="142.389" y1="21.4893" x2="249.631" y2="117.47" gradientUnits="userSpaceOnUse">
<stop stop-color="white"/>
<stop offset="1" stop-color="white" stop-opacity="0"/>
</linearGradient>
<linearGradient id="paint3_linear_21_356" x1="123.297" y1="34.1835" x2="230.539" y2="130.165" gradientUnits="userSpaceOnUse">
<stop stop-color="white"/>
<stop offset="1" stop-color="white" stop-opacity="0"/>
</linearGradient>
<linearGradient id="paint4_linear_21_356" x1="295.147" y1="109.744" x2="209.119" y2="126.209" gradientUnits="userSpaceOnUse">
<stop stop-color="white"/>
<stop offset="1" stop-color="white" stop-opacity="0"/>
</linearGradient>
<linearGradient id="paint5_linear_21_356" x1="141.172" y1="185.403" x2="222.198" y2="264.036" gradientUnits="userSpaceOnUse">
<stop stop-color="white"/>
<stop offset="1" stop-color="white" stop-opacity="0"/>
</linearGradient>
<linearGradient id="paint6_linear_21_356" x1="160.993" y1="214.288" x2="195.7" y2="288.297" gradientUnits="userSpaceOnUse">
<stop stop-color="white"/>
<stop offset="1" stop-color="white" stop-opacity="0"/>
</linearGradient>
<linearGradient id="paint7_linear_21_356" x1="166.922" y1="130.131" x2="191.098" y2="195.432" gradientUnits="userSpaceOnUse">
<stop stop-color="white"/>
<stop offset="1" stop-color="white" stop-opacity="0"/>
</linearGradient>
<linearGradient id="paint8_linear_21_356" x1="101.776" y1="99.7089" x2="42.6231" y2="146.024" gradientUnits="userSpaceOnUse">
<stop stop-color="white"/>
<stop offset="1" stop-color="white" stop-opacity="0"/>
</linearGradient>
<linearGradient id="paint9_linear_21_356" x1="97.9374" y1="200.164" x2="77.7803" y2="216.071" gradientUnits="userSpaceOnUse">
<stop stop-color="white"/>
<stop offset="1" stop-color="white" stop-opacity="0"/>
</linearGradient>
</defs>
</svg>
