<svg width="330" height="400" viewBox="0 0 330 400" fill="none" xmlns="http://www.w3.org/2000/svg">
<path opacity="0.3" d="M188.703 157.902L314.617 230.633V296.256L199.83 229.914L188.745 233.553L188.703 157.902Z" fill="url(#paint0_linear_21_290)"/>
<path d="M214.3 194.67C214.3 200.085 211.084 202.624 207.149 200.339C203.215 198.054 199.999 191.835 199.999 186.419C199.999 181.004 203.215 178.465 207.149 180.75C211.084 182.992 214.3 189.254 214.3 194.67Z" fill="#0033FF"/>
<path opacity="0.15" d="M221.07 192.554L248.656 208.505V214.259L221.07 198.308V192.554Z" fill="white"/>
<path opacity="0.15" d="M221.07 204.105L303.447 251.704V257.458L221.07 209.859V204.105Z" fill="white"/>
<path opacity="0.15" d="M221.07 215.613L285.508 252.846V258.6L221.07 221.367V215.613Z" fill="white"/>
<path opacity="0.3" d="M97.2283 70.363L168.14 111.277V242.649L97.2283 201.735V70.363Z" fill="url(#paint1_linear_21_290)"/>
<path opacity="0.15" d="M104.209 148.34L161.159 181.215V186.969L104.209 154.094V148.34Z" fill="white"/>
<path opacity="0.15" d="M108.186 161.837L157.139 190.1V195.854L108.186 167.591V161.837Z" fill="white"/>
<path d="M128.876 185.362L79.5428 156.887V171.568L128.876 200.043V185.362Z" fill="#00FFC2"/>
<path d="M140.765 121.981C140.765 128.328 137.084 131.332 132.557 128.708C128.03 126.085 124.349 118.766 124.349 112.377C124.349 106.03 128.03 103.026 132.557 105.649C137.084 108.357 140.765 115.635 140.765 121.981Z" fill="#00FFC2"/>
<path d="M132.557 133.828C125.237 129.555 119.187 133.574 118.129 142.755C117.96 144.363 119.145 146.479 120.625 147.325L144.488 161.287C145.969 162.133 147.154 161.456 146.985 159.637C145.927 149.186 139.877 138.101 132.557 133.828Z" fill="#00FFC2"/>
<path opacity="0.3" d="M146.435 227.714L217.346 268.628V400L146.435 359.086V227.714Z" fill="url(#paint2_linear_21_290)"/>
<path opacity="0.15" d="M153.374 305.691L210.323 338.566V344.32L153.374 311.445V305.691Z" fill="white"/>
<path opacity="0.15" d="M157.351 319.188L206.303 347.451V353.205L157.351 324.942V319.188Z" fill="white"/>
<path d="M234.905 375.503L185.571 347.028V361.709L234.905 390.184V375.503Z" fill="#0033FF"/>
<path d="M189.929 279.332C189.929 285.678 186.248 288.682 181.721 286.059C177.194 283.394 173.513 276.116 173.513 269.728C173.513 263.381 177.194 260.377 181.721 263C186.248 265.666 189.929 272.985 189.929 279.332Z" fill="#0033FF"/>
<path d="M181.721 291.179C174.402 286.905 168.351 290.925 167.293 300.106C167.124 301.714 168.309 303.829 169.79 304.676L193.653 318.638C195.133 319.484 196.318 318.807 196.149 316.988C195.091 306.537 189.041 295.452 181.721 291.179Z" fill="#0033FF"/>
<path opacity="0.3" d="M125.915 216.248L0 143.517V209.14L114.829 275.439L125.957 291.898L125.915 216.248Z" fill="url(#paint3_linear_21_290)"/>
<path d="M100.317 223.44C100.317 228.856 103.532 235.076 107.467 237.36C111.402 239.645 114.618 237.107 114.618 231.691C114.618 226.275 111.402 220.056 107.467 217.771C103.532 215.486 100.317 218.025 100.317 223.44Z" fill="#00FFC2"/>
<path opacity="0.15" d="M93.5471 213.498L65.961 197.589V203.343L93.5471 219.294V213.498Z" fill="white"/>
<path opacity="0.15" d="M93.5471 225.048L11.1696 177.45V183.204L93.5471 230.802V225.048Z" fill="white"/>
<path opacity="0.15" d="M93.5473 236.599L29.1092 199.366V205.12L93.5473 242.353V236.599Z" fill="white"/>
<path opacity="0.4" d="M312.248 54.2851C240.828 13.0329 182.441 61.9009 182.441 164.46L164.205 153.925C164.247 38.0804 230.293 -18.2765 312.248 29.0261V54.2851Z" fill="url(#paint4_linear_21_290)"/>
<path opacity="0.4" d="M252.675 205.078C252.675 159.552 279.33 138.017 312.205 156.971V131.712C269.261 106.919 234.439 135.055 234.439 194.543L252.675 205.078Z" fill="url(#paint5_linear_21_290)"/>
<path opacity="0.4" d="M217.135 184.092C217.135 111.404 259.698 77.0479 312.121 107.342V82.0828C249.629 45.9924 198.899 86.9484 198.899 173.557L217.135 184.092Z" fill="url(#paint6_linear_21_290)"/>
<path opacity="0.4" d="M294.9 229.406C304.462 234.949 312.205 228.645 312.205 215.402C312.205 202.159 304.462 186.927 294.9 181.384C285.338 175.842 277.596 182.146 277.596 195.389C277.596 208.674 285.338 223.864 294.9 229.406Z" fill="url(#paint7_linear_21_290)"/>
<path opacity="0.07" d="M329.172 42.0152C257.71 0.763014 199.364 49.6311 199.364 152.19L181.129 141.655C181.171 25.8105 247.217 -30.5464 329.172 16.7562V42.0152Z" fill="url(#paint8_linear_21_290)"/>
<path opacity="0.07" d="M269.599 192.808C269.599 147.282 296.254 125.747 329.129 144.702V119.443C286.185 94.6489 251.363 122.785 251.363 182.273L269.599 192.808Z" fill="url(#paint9_linear_21_290)"/>
<path opacity="0.07" d="M234.059 171.822C234.059 99.1337 276.622 64.778 329.045 95.0719V69.8129C266.553 33.7225 215.823 74.6785 215.823 161.287L234.059 171.822Z" fill="url(#paint10_linear_21_290)"/>
<path opacity="0.07" d="M311.824 217.136C321.387 222.679 329.129 216.375 329.129 203.132C329.129 189.889 321.387 174.657 311.824 169.114C302.262 163.572 294.52 169.876 294.52 183.119C294.52 196.404 302.262 211.594 311.824 217.136Z" fill="url(#paint11_linear_21_290)"/>
<path opacity="0.2" d="M256.398 282.844C258.937 284.282 260.968 287.836 260.968 290.756V303.66L269.514 308.568C272.053 310.007 274.084 313.561 274.084 316.522C274.084 319.442 272.053 320.626 269.514 319.188L260.968 314.28V327.185C260.968 330.104 258.937 331.289 256.398 329.85C253.86 328.411 251.829 324.857 251.829 321.896V308.991L243.282 304.083C240.743 302.645 238.713 299.091 238.713 296.171C238.713 293.252 240.743 292.067 243.282 293.506L251.829 298.414V285.509C251.829 282.59 253.86 281.405 256.398 282.844Z" fill="url(#paint12_linear_21_290)"/>
<path opacity="0.2" d="M54.7913 98.5414L66.5535 121.643C68.1613 124.816 67.9074 127.989 65.9612 128.751C64.0149 129.512 61.1379 127.524 59.5301 124.35L59.4031 124.054V149.694C59.4031 152.614 57.3723 153.798 54.8337 152.36C52.2951 150.879 50.2642 147.367 50.2642 144.448V118.808L50.1373 118.935C48.5295 120.246 45.6101 118.892 43.7061 115.888C41.7599 112.884 41.506 109.415 43.1138 108.103L54.7913 98.5414Z" fill="url(#paint13_linear_21_290)"/>
<defs>
<linearGradient id="paint0_linear_21_290" x1="242.83" y1="160.038" x2="259.024" y2="292.055" gradientUnits="userSpaceOnUse">
<stop stop-color="white"/>
<stop offset="1" stop-color="white" stop-opacity="0"/>
</linearGradient>
<linearGradient id="paint1_linear_21_290" x1="175.734" y1="81.923" x2="112.79" y2="190.973" gradientUnits="userSpaceOnUse">
<stop stop-color="white"/>
<stop offset="1" stop-color="white" stop-opacity="0"/>
</linearGradient>
<linearGradient id="paint2_linear_21_290" x1="224.902" y1="239.264" x2="161.958" y2="348.314" gradientUnits="userSpaceOnUse">
<stop stop-color="white"/>
<stop offset="1" stop-color="white" stop-opacity="0"/>
</linearGradient>
<linearGradient id="paint3_linear_21_290" x1="98.4442" y1="189.93" x2="33.4308" y2="240.809" gradientUnits="userSpaceOnUse">
<stop stop-color="white"/>
<stop offset="1" stop-color="white" stop-opacity="0"/>
</linearGradient>
<linearGradient id="paint4_linear_21_290" x1="287.089" y1="9.6922" x2="181.885" y2="132.449" gradientUnits="userSpaceOnUse">
<stop stop-color="white"/>
<stop offset="1" stop-color="white" stop-opacity="0"/>
</linearGradient>
<linearGradient id="paint5_linear_21_290" x1="351.892" y1="65.2783" x2="246.688" y2="188.035" gradientUnits="userSpaceOnUse">
<stop stop-color="white"/>
<stop offset="1" stop-color="white" stop-opacity="0"/>
</linearGradient>
<linearGradient id="paint6_linear_21_290" x1="320.163" y1="37.6691" x2="214.959" y2="160.426" gradientUnits="userSpaceOnUse">
<stop stop-color="white"/>
<stop offset="1" stop-color="white" stop-opacity="0"/>
</linearGradient>
<linearGradient id="paint7_linear_21_290" x1="388.309" y1="96.4243" x2="283.104" y2="219.181" gradientUnits="userSpaceOnUse">
<stop stop-color="white"/>
<stop offset="1" stop-color="white" stop-opacity="0"/>
</linearGradient>
<linearGradient id="paint8_linear_21_290" x1="304.012" y1="-2.5777" x2="198.808" y2="120.18" gradientUnits="userSpaceOnUse">
<stop stop-color="white"/>
<stop offset="1" stop-color="white" stop-opacity="0"/>
</linearGradient>
<linearGradient id="paint9_linear_21_290" x1="368.815" y1="53.0088" x2="263.611" y2="175.766" gradientUnits="userSpaceOnUse">
<stop stop-color="white"/>
<stop offset="1" stop-color="white" stop-opacity="0"/>
</linearGradient>
<linearGradient id="paint10_linear_21_290" x1="337.087" y1="25.3992" x2="231.882" y2="148.156" gradientUnits="userSpaceOnUse">
<stop stop-color="white"/>
<stop offset="1" stop-color="white" stop-opacity="0"/>
</linearGradient>
<linearGradient id="paint11_linear_21_290" x1="405.232" y1="84.154" x2="300.028" y2="206.911" gradientUnits="userSpaceOnUse">
<stop stop-color="white"/>
<stop offset="1" stop-color="white" stop-opacity="0"/>
</linearGradient>
<linearGradient id="paint12_linear_21_290" x1="265.244" y1="299.353" x2="243.091" y2="316.835" gradientUnits="userSpaceOnUse">
<stop stop-color="white"/>
<stop offset="1" stop-color="white" stop-opacity="0"/>
</linearGradient>
<linearGradient id="paint13_linear_21_290" x1="63.1745" y1="121.831" x2="41.7147" y2="133.793" gradientUnits="userSpaceOnUse">
<stop stop-color="white"/>
<stop offset="1" stop-color="white" stop-opacity="0"/>
</linearGradient>
</defs>
</svg>
