<svg width="80" height="80" viewBox="0 0 80 80" fill="none" xmlns="http://www.w3.org/2000/svg">
<path d="M16.6666 60H9.99998C8.23187 60 6.53618 59.2976 5.28593 58.0474C4.03569 56.7971 3.33331 55.1014 3.33331 53.3333V26.6667C3.33331 24.8986 4.03569 23.2029 5.28593 21.9526C6.53618 20.7024 8.23187 20 9.99998 20H20.6333M50 20H56.6666C58.4348 20 60.1304 20.7024 61.3807 21.9526C62.6309 23.2029 63.3333 24.8986 63.3333 26.6667V53.3333C63.3333 55.1014 62.6309 56.7971 61.3807 58.0474C60.1304 59.2976 58.4348 60 56.6666 60H46.0333" stroke="#0EEBAA" stroke-width="2" stroke-linecap="round" stroke-linejoin="round"/>
<path d="M76.6667 43.3333V36.6666" stroke="#0EEBAA" stroke-width="2" stroke-linecap="round" stroke-linejoin="round"/>
<path d="M36.6666 20L23.3333 40H43.3333L30 60" stroke="#0EEBAA" stroke-width="2" stroke-linecap="round" stroke-linejoin="round"/>
</svg>
