<svg width="80" height="80" viewBox="0 0 80 80" fill="none" xmlns="http://www.w3.org/2000/svg">
<path d="M66.6666 40V73.3333H13.3333V40" stroke="#0EEBAA" stroke-width="2" stroke-linecap="round" stroke-linejoin="round"/>
<path d="M73.3334 23.3334H6.66669V40H73.3334V23.3334Z" stroke="#0EEBAA" stroke-width="2" stroke-linecap="round" stroke-linejoin="round"/>
<path d="M40 73.3334V23.3334" stroke="#0EEBAA" stroke-width="2" stroke-linecap="round" stroke-linejoin="round"/>
<path d="M40 23.3333H25C22.7899 23.3333 20.6703 22.4553 19.1075 20.8925C17.5447 19.3297 16.6667 17.2101 16.6667 15C16.6667 12.7898 17.5447 10.6702 19.1075 9.1074C20.6703 7.5446 22.7899 6.66663 25 6.66663C36.6667 6.66663 40 23.3333 40 23.3333Z" stroke="#0EEBAA" stroke-width="2" stroke-linecap="round" stroke-linejoin="round"/>
<path d="M40 23.3333H55C57.2101 23.3333 59.3298 22.4553 60.8926 20.8925C62.4554 19.3297 63.3333 17.2101 63.3333 15C63.3333 12.7898 62.4554 10.6702 60.8926 9.1074C59.3298 7.5446 57.2101 6.66663 55 6.66663C43.3333 6.66663 40 23.3333 40 23.3333Z" stroke="#0EEBAA" stroke-width="2" stroke-linecap="round" stroke-linejoin="round"/>
</svg>
