<svg width="80" height="80" viewBox="0 0 80 80" fill="none" xmlns="http://www.w3.org/2000/svg">
<path d="M73.3334 40H6.66669" stroke="#0EEBAA" stroke-width="2" stroke-linecap="round" stroke-linejoin="round"/>
<path d="M18.1667 17.0334L6.66669 40V60C6.66669 61.7682 7.36907 63.4638 8.61931 64.7141C9.86955 65.9643 11.5652 66.6667 13.3334 66.6667H66.6667C68.4348 66.6667 70.1305 65.9643 71.3807 64.7141C72.631 63.4638 73.3334 61.7682 73.3334 60V40L61.8333 17.0334C61.2814 15.9227 60.4306 14.9879 59.3765 14.3343C58.3225 13.6807 57.107 13.334 55.8667 13.3334H24.1334C22.8931 13.334 21.6776 13.6807 20.6235 14.3343C19.5694 14.9879 18.7186 15.9227 18.1667 17.0334V17.0334Z" stroke="#0EEBAA" stroke-width="2" stroke-linecap="round" stroke-linejoin="round"/>
<path d="M20 53.3334H20.0333" stroke="#0EEBAA" stroke-width="2" stroke-linecap="round" stroke-linejoin="round"/>
<path d="M33.3333 53.3334H33.3666" stroke="#0EEBAA" stroke-width="2" stroke-linecap="round" stroke-linejoin="round"/>
</svg>
