<svg width="80" height="80" viewBox="0 0 80 80" fill="none" xmlns="http://www.w3.org/2000/svg">
<path d="M69.4667 15.3666C67.7641 13.6633 65.7427 12.3121 63.5178 11.3903C61.293 10.4684 58.9083 9.9939 56.5 9.9939C54.0917 9.9939 51.707 10.4684 49.4821 11.3903C47.2573 12.3121 45.2358 13.6633 43.5333 15.3666L40 18.9L36.4667 15.3666C33.0277 11.9277 28.3634 9.99568 23.5 9.99568C18.6365 9.99568 13.9723 11.9277 10.5333 15.3666C7.09435 18.8056 5.16235 23.4699 5.16235 28.3333C5.16235 33.1968 7.09435 37.861 10.5333 41.3L14.0667 44.8333L40 70.7666L65.9333 44.8333L69.4667 41.3C71.17 39.5975 72.5212 37.576 73.443 35.3512C74.3649 33.1263 74.8394 30.7416 74.8394 28.3333C74.8394 25.925 74.3649 23.5403 73.443 21.3155C72.5212 19.0906 71.17 17.0692 69.4667 15.3666V15.3666Z" stroke="#0EEBAA" stroke-width="2" stroke-linecap="round" stroke-linejoin="round"/>
</svg>
