<svg width="80" height="80" viewBox="0 0 80 80" fill="none" xmlns="http://www.w3.org/2000/svg">
<path d="M40 46.6667C43.6819 46.6667 46.6666 43.6819 46.6666 40C46.6666 36.3181 43.6819 33.3334 40 33.3334C36.3181 33.3334 33.3333 36.3181 33.3333 40C33.3333 43.6819 36.3181 46.6667 40 46.6667Z" stroke="#0EEBAA" stroke-width="2" stroke-linecap="round" stroke-linejoin="round"/>
<path d="M54.1333 25.8667C55.9928 27.7241 57.468 29.9299 58.4745 32.3579C59.481 34.7858 59.9991 37.3884 59.9991 40.0167C59.9991 42.645 59.481 45.2475 58.4745 47.6755C57.468 50.1035 55.9928 52.3092 54.1333 54.1667M25.8667 54.1333C24.0071 52.2759 22.5319 50.0701 21.5255 47.6422C20.519 45.2142 20.0009 42.6117 20.0009 39.9833C20.0009 37.355 20.519 34.7525 21.5255 32.3245C22.5319 29.8966 24.0071 27.6908 25.8667 25.8333M63.5666 16.4333C69.8157 22.6843 73.3262 31.1612 73.3262 40C73.3262 48.8388 69.8157 57.3158 63.5666 63.5667M16.4333 63.5667C10.1843 57.3158 6.67377 48.8388 6.67377 40C6.67377 31.1612 10.1843 22.6843 16.4333 16.4333" stroke="#0EEBAA" stroke-width="2" stroke-linecap="round" stroke-linejoin="round"/>
</svg>
