<svg width="95" height="78" viewBox="0 0 95 78" fill="none" xmlns="http://www.w3.org/2000/svg">
<path d="M82.0455 0H12.9545C5.8004 0 0 5.8004 0 12.9545V64.7727C0 71.9269 5.8004 77.7273 12.9545 77.7273H82.0455C89.1996 77.7273 95 71.9269 95 64.7727V12.9545C95 5.8004 89.1996 0 82.0455 0ZM82.0455 8.63636C82.5442 8.63636 83.0235 8.72057 83.4683 8.8771L47.5 37.6524L11.5317 8.8771C11.9889 8.71689 12.4701 8.63549 12.9545 8.63636H82.0455ZM82.0455 69.0909H12.9545C11.8093 69.0909 10.7109 68.636 9.90113 67.8261C9.09131 67.0163 8.63636 65.918 8.63636 64.7727V17.6203L44.8022 46.5532C45.5903 47.1848 46.5446 47.5 47.5 47.5C48.4554 47.5 49.4097 47.1848 50.1978 46.5532L86.3636 17.6203V64.7727C86.3636 65.918 85.9087 67.0163 85.0989 67.8261C84.2891 68.636 83.1907 69.0909 82.0455 69.0909Z" fill="#0EEBAA"/>
</svg>
