<svg width="47" height="28" viewBox="0 0 47 28" fill="none" xmlns="http://www.w3.org/2000/svg">
<path d="M23.3365 27.9999C22.7227 28.0035 22.1143 27.8858 21.5461 27.6538C20.9779 27.4217 20.4611 27.0797 20.0254 26.6475L1.37149 7.99362C0.936673 7.5588 0.59176 7.0426 0.35644 6.47449C0.121119 5.90638 9.16305e-09 5.29747 0 4.68255C-9.16305e-09 4.06763 0.121119 3.45873 0.35644 2.89061C0.59176 2.3225 0.936673 1.8063 1.37149 1.37149C1.8063 0.936671 2.32251 0.591756 2.89062 0.356435C3.45873 0.121115 4.06763 -9.16304e-09 4.68256 0C5.29748 9.16306e-09 5.90638 0.121115 6.47449 0.356435C7.04261 0.591756 7.55881 0.936671 7.99362 1.37149L23.3365 16.8076L38.7259 1.97774C39.1549 1.50071 39.6777 1.11733 40.2617 0.851582C40.8456 0.585828 41.4781 0.443419 42.1195 0.433256C42.761 0.423093 43.3977 0.545393 43.9897 0.792515C44.5818 1.03964 45.1165 1.40626 45.5604 1.86946C46.0043 2.33266 46.3478 2.88246 46.5695 3.48449C46.7913 4.08652 46.8864 4.72782 46.8489 5.36828C46.8115 6.00874 46.6423 6.6346 46.352 7.20669C46.0616 7.77879 45.6563 8.28482 45.1615 8.69314L26.5076 26.6941C25.6548 27.5164 24.521 27.9832 23.3365 27.9999Z" fill="#0EEBAA"/>
</svg>
