<svg width="80" height="80" viewBox="0 0 80 80" fill="none" xmlns="http://www.w3.org/2000/svg">
<path d="M56.4073 65.641H23.5885C21.6845 65.641 19.8584 66.3974 18.5121 67.7439C17.1658 69.0903 16.4094 70.9164 16.4094 72.8205C16.4094 74.7246 17.1658 76.5508 18.5121 77.8972C19.8584 79.2436 21.6845 80 23.5885 80H56.4073C58.3113 80 60.1373 79.2436 61.4837 77.8972C62.83 76.5508 63.5864 74.7246 63.5864 72.8205C63.5864 70.9164 62.83 69.0903 61.4837 67.7439C60.1373 66.3974 58.3113 65.641 56.4073 65.641ZM72.8166 7.46667H67.6887V7.17949C67.7555 5.35399 67.0993 3.57586 65.8626 2.23152C64.6258 0.887178 62.9086 0.0852487 61.0839 0H18.9118C17.0872 0.0852487 15.3699 0.887178 14.1332 2.23152C12.8964 3.57586 12.2402 5.35399 12.307 7.17949V8.20513H7.17911C5.27841 8.2159 3.45863 8.97576 2.11461 10.3199C0.770595 11.6639 0.0107691 13.4838 0 15.3846V20.3897C0.00478698 22.6001 0.483278 24.7838 1.40323 26.7937C2.32318 28.8035 3.66322 30.5928 5.33305 32.041L13.5377 38.9744L14.03 39.2615C15.9518 44.8182 19.9922 49.3897 25.2705 51.9795L30.0292 54.1949V59.4051H50.2127V54.2769L54.9714 52.0615C57.7354 50.7022 60.1893 48.7874 62.1798 46.4368C64.1703 44.0862 65.6546 41.3502 66.54 38.4L74.7447 31.4667C76.4419 29.9748 77.7916 28.129 78.6988 26.0594C79.606 23.9897 80.0487 21.7463 79.9957 19.4872V14.6462C79.985 12.7454 79.2252 10.9255 77.8811 9.58139C76.5371 8.2373 74.7173 7.47744 72.8166 7.46667ZM6.15352 20.3897V15.3846C6.15352 15.1126 6.26157 14.8517 6.45391 14.6594C6.64624 14.467 6.9071 14.359 7.17911 14.359H12.307V29.9077L9.35335 27.4051C8.35205 26.5304 7.54874 25.4522 6.99697 24.2425C6.4452 23.0328 6.15766 21.7194 6.15352 20.3897ZM73.8422 19.4872C73.8381 20.8168 73.5506 22.1302 72.9988 23.3399C72.447 24.5497 71.6437 25.6278 70.6424 26.5026L67.6887 29.0051V13.6205H72.8166C73.0886 13.6205 73.3495 13.7286 73.5418 13.9209C73.7342 14.1133 73.8422 14.3741 73.8422 14.6462V19.4872Z" fill="#0EEBAA"/>
</svg>
