<svg width="68" height="76" viewBox="0 0 68 76" fill="none" xmlns="http://www.w3.org/2000/svg">
<path d="M34 33.7778C37.8426 33.7778 41.5989 32.7873 44.7939 30.9315C47.9889 29.0757 50.4792 26.438 51.9497 23.352C53.4202 20.266 53.8049 16.8702 53.0553 13.594C52.3056 10.3179 50.4552 7.3086 47.7381 4.94665C45.0209 2.58469 41.5591 0.976184 37.7903 0.324523C34.0216 -0.327139 30.1151 0.00731764 26.565 1.2856C23.0149 2.56388 19.9806 4.72857 17.8457 7.50593C15.7109 10.2833 14.5714 13.5486 14.5714 16.8889C14.5714 21.3681 16.6184 25.6639 20.2619 28.8311C23.9055 31.9984 28.8472 33.7778 34 33.7778ZM63.1429 76C64.4311 76 65.6665 75.5552 66.5774 74.7633C67.4883 73.9715 68 72.8976 68 71.7778C68 63.9392 64.4179 56.4216 58.0416 50.8788C51.6654 45.3361 43.0174 42.2222 34 42.2222C24.9826 42.2222 16.3346 45.3361 9.95837 50.8788C3.58213 56.4216 1.34369e-07 63.9392 0 71.7778C0 72.8976 0.511734 73.9715 1.42263 74.7633C2.33352 75.5552 3.56895 76 4.85714 76H63.1429Z" fill="#0EEBAA"/>
</svg>
