<svg width="84" height="90" viewBox="0 0 84 90" fill="none" xmlns="http://www.w3.org/2000/svg">
<path d="M10 0C4.50097 0 0 4.82247 0 10.7143V79.2857C0 85.1775 4.50097 90 10 90H74C79.499 90 84 85.1775 84 79.2857V10.7143C84 4.82247 79.499 0 74 0H10ZM10 4.28571H74C77.337 4.28571 80 7.13896 80 10.7143V79.2857C80 82.861 77.337 85.7143 74 85.7143H10C6.66303 85.7143 4 82.861 4 79.2857V10.7143C4 7.13896 6.66303 4.28571 10 4.28571ZM20 15.0251C17.8096 15.0251 15.8384 15.7266 14.3789 17.0424C12.9194 18.3582 12.0234 20.324 12.0234 22.4289C12.0234 26.4299 15.2626 29.5492 19.3828 29.8577L19.3906 29.8619C19.587 29.9336 19.7926 29.9717 20 29.9749C24.546 29.9749 27.9766 26.563 27.9766 22.4289C27.9762 22.3912 27.9749 22.3535 27.9727 22.3158C27.7692 18.2439 24.3809 15.0251 20 15.0251ZM20 19.2606C22.7845 19.2606 23.8839 20.5929 24.0039 22.4833C23.9796 24.3181 22.9202 25.7394 20 25.7394C17.2292 25.7394 15.9766 24.2191 15.9766 22.4289C15.9766 21.5337 16.2814 20.8592 16.9219 20.2818C17.5623 19.7044 18.5904 19.2606 20 19.2606ZM14 32.1429C13.4696 32.1429 12.9609 32.3687 12.5858 32.7705C12.2108 33.1724 12.0001 33.7174 12 34.2857V75C12.0001 75.5683 12.2108 76.1133 12.5858 76.5152C12.9609 76.917 13.4696 77.1428 14 77.1429H26C26.5304 77.1428 27.0391 76.917 27.4142 76.5152C27.7892 76.1133 27.9999 75.5683 28 75V62.4316V34.2857C27.9999 33.7174 27.7892 33.1724 27.4142 32.7705C27.0391 32.3687 26.5304 32.1429 26 32.1429H14ZM32 32.1429C31.4696 32.1429 30.9609 32.3687 30.5858 32.7705C30.2108 33.1724 30.0001 33.7174 30 34.2857V75C30.0001 75.5683 30.2108 76.1133 30.5858 76.5152C30.9609 76.917 31.4696 77.1428 32 77.1429H44C44.5304 77.1428 45.0391 76.917 45.4142 76.5152C45.7892 76.1133 45.9999 75.5683 46 75V53.5714C46 51.7936 46.4528 50.0251 47.25 48.8672C48.0472 47.7093 49.0529 47.0144 50.9648 47.0508C52.9363 47.0871 53.98 47.8107 54.7695 48.9467C55.5591 50.0827 56 51.7857 56 53.5714V75C56.0001 75.5683 56.2108 76.1133 56.5858 76.5152C56.9609 76.917 57.4696 77.1428 58 77.1429H70C70.5304 77.1428 71.0391 76.917 71.4142 76.5152C71.7892 76.1133 71.9999 75.5683 72 75V51.9894C72 45.6432 70.2456 40.6164 67.2383 37.2154C64.231 33.8144 60.0483 32.1429 55.625 32.1429C51.421 32.1429 48.2217 33.6533 46 35.1939V34.2857C45.9999 33.7174 45.7892 33.1724 45.4142 32.7705C45.0391 32.3687 44.5304 32.1429 44 32.1429H32ZM16 36.4286H24V62.4316V72.8571H16V36.4286ZM34 36.4286H42V39.7726C42.0001 40.2219 42.1321 40.6598 42.3772 41.0244C42.6222 41.389 42.9681 41.6619 43.3658 41.8044C43.7635 41.9469 44.193 41.9519 44.5935 41.8186C44.994 41.6853 45.3453 41.4205 45.5977 41.0617C45.5977 41.0617 48.7384 36.4286 55.625 36.4286C59.1317 36.4286 62.1387 37.677 64.3359 40.1618C66.5331 42.6467 68 46.4748 68 51.9894V72.8571H60V53.5714C60 51.0714 59.4409 48.4867 57.9805 46.3853C56.52 44.284 54.0637 42.8209 51.0352 42.7651C47.9911 42.7071 45.495 44.2007 44.0312 46.3267C42.5675 48.4528 42 51.0636 42 53.5714V72.8571H34V36.4286Z" fill="#0EEBAA"/>
</svg>
