<svg width="96" height="71" viewBox="0 0 96 71" fill="none" xmlns="http://www.w3.org/2000/svg">
<path d="M93.3203 12.2031C92.4328 7.32361 88.2045 3.77014 83.2974 2.66077C75.9543 1.10937 62.3643 0 47.6607 0C32.9657 0 19.1582 1.10937 11.8064 2.66077C6.9081 3.77014 2.67102 7.09827 1.78358 12.2031C0.88744 17.75 0 25.5156 0 35.5C0 45.4844 0.88744 53.25 2.00109 58.7969C2.89723 63.6764 7.12561 67.2299 12.0239 68.3392C19.8195 69.8906 33.1833 71 47.8869 71C62.5905 71 75.9543 69.8906 83.7499 68.3392C88.6482 67.2299 92.8766 63.9017 93.7727 58.7969C94.6601 53.25 95.7738 45.259 96 35.5C95.5476 25.5156 94.4339 17.75 93.3203 12.2031ZM35.6368 51.0312V19.9688L62.8081 35.5L35.6368 51.0312Z" fill="#0EEBAA"/>
</svg>
