<svg width="80" height="80" viewBox="0 0 80 80" fill="none" xmlns="http://www.w3.org/2000/svg">
<path d="M79.6317 14.3917L69.6167 10.3833L65.61 0.366667L60.3667 5.60833C54.206 1.94067 47.1698 0.00314026 40 0C17.945 0 0 17.945 0 40C0 62.055 17.945 80 40 80C62.055 80 80 62.055 80 40C80 32.8033 78.05 25.7983 74.3917 19.6333L79.6317 14.3917ZM67.05 12.95L73.7 15.61L69.5967 19.7117L62.95 17.05L60.29 10.4017L64.3917 6.29833L67.05 12.95ZM76.6667 40C76.6667 60.2183 60.2183 76.6667 40 76.6667C19.7817 76.6667 3.33333 60.2183 3.33333 40C3.33333 19.7817 19.7817 3.33333 40 3.33333C46.3133 3.33333 52.475 4.95167 57.945 8.03L56.3767 9.59833L59.71 17.9333L57.6117 20.0317C52.91 15.8767 46.7533 13.3333 40 13.3333C25.2967 13.3333 13.3333 25.2967 13.3333 40C13.3333 54.7033 25.2967 66.6667 40 66.6667C54.7033 66.6667 66.6667 54.7033 66.6667 40C66.6667 33.2467 64.1233 27.09 59.97 22.3867L62.0683 20.2883L70.4033 23.6217L71.9717 22.0533C75.0535 27.5324 76.6706 33.7136 76.6667 40ZM50 40C50 45.515 45.515 50 40 50C34.485 50 30 45.515 30 40C30 34.485 34.485 30 40 30C42.1567 30 44.15 30.6933 45.785 31.8583L40.8533 36.79C40.5754 36.7124 40.2886 36.671 40 36.6667C39.3407 36.6667 38.6963 36.8622 38.1481 37.2284C37.5999 37.5947 37.1727 38.1153 36.9204 38.7244C36.6681 39.3335 36.6021 40.0037 36.7307 40.6503C36.8593 41.2969 37.1768 41.8908 37.643 42.357C38.1092 42.8232 38.7031 43.1407 39.3497 43.2693C39.9963 43.3979 40.6665 43.3319 41.2756 43.0796C41.8847 42.8273 42.4053 42.4001 42.7716 41.8519C43.1378 41.3037 43.3333 40.6593 43.3333 40C43.3333 39.7033 43.2817 39.4217 43.21 39.1467L48.1417 34.215C49.3501 35.9019 49.9999 37.9249 50 40ZM48.1633 29.48C45.8325 27.6574 42.9588 26.667 40 26.6667C32.6483 26.6667 26.6667 32.6483 26.6667 40C26.6667 47.3517 32.6483 53.3333 40 53.3333C47.3517 53.3333 53.3333 47.3517 53.3333 40C53.333 37.0412 52.3426 34.1675 50.52 31.8367L57.615 24.7417C61.3018 28.9699 63.3331 34.3901 63.3333 40C63.3333 52.8667 52.8667 63.3333 40 63.3333C27.1333 63.3333 16.6667 52.8667 16.6667 40C16.6667 27.1333 27.1333 16.6667 40 16.6667C45.8333 16.6667 51.1617 18.8333 55.2567 22.3867L48.1633 29.48Z" fill="#0EEBAA"/>
</svg>
