<svg width="81" height="50" viewBox="0 0 81 50" fill="none" xmlns="http://www.w3.org/2000/svg">
<path fill-rule="evenodd" clip-rule="evenodd" d="M16.3331 38.6596C15.4459 38.5327 14.5029 38.4615 13.5 38.4615C6.11357 38.4615 1.98835 42.3481 0.406926 44.2846C0.150426 44.6173 0.0135073 45.025 0.0135073 45.4462C0.0135073 45.4577 0.0134936 45.4692 0.0115651 45.4788C-6.35648e-06 46.1904 0 47.1327 0 48.0769C0 49.1385 0.864 50 1.92857 50H15.7603C15.5424 49.3885 15.4286 48.7385 15.4286 48.0769C15.4286 45.8885 15.4286 43.2808 15.4363 41.7404C15.4363 40.6442 15.7506 39.5769 16.3331 38.6596ZM59.7857 50H21.2143C20.7032 50 20.2114 49.7981 19.8508 49.4365C19.4882 49.0769 19.2857 48.5865 19.2857 48.0769C19.2857 45.8942 19.2857 43.2981 19.2934 41.7519C19.2934 41.7481 19.2934 41.7442 19.2934 41.7404C19.2934 41.2981 19.4477 40.8711 19.7274 40.5288C22.1207 37.8038 29.3529 30.7692 40.5 30.7692C53.1167 30.7692 59.4521 37.7904 61.3903 40.4385C61.6044 40.7635 61.7143 41.1308 61.7143 41.5058V48.0769C61.7143 48.5865 61.5118 49.0769 61.1492 49.4365C60.7886 49.7981 60.2968 50 59.7857 50ZM65.2397 50H79.0714C80.136 50 81 49.1385 81 48.0769V45.4442C81 45.0192 80.8592 44.6077 80.6008 44.2712C79.0116 42.3481 74.8845 38.4615 67.5 38.4615C66.5492 38.4615 65.6524 38.525 64.8077 38.6404C65.3072 39.5115 65.5714 40.5 65.5714 41.5096V48.0769C65.5714 48.7385 65.4576 49.3885 65.2397 50ZM13.5 15.3846C8.17714 15.3846 3.85714 19.6923 3.85714 25C3.85714 30.3077 8.17714 34.6154 13.5 34.6154C18.8229 34.6154 23.1429 30.3077 23.1429 25C23.1429 19.6923 18.8229 15.3846 13.5 15.3846ZM67.5 15.3846C62.1771 15.3846 57.8571 19.6923 57.8571 25C57.8571 30.3077 62.1771 34.6154 67.5 34.6154C72.8229 34.6154 77.1429 30.3077 77.1429 25C77.1429 19.6923 72.8229 15.3846 67.5 15.3846ZM40.5 0C33.0499 0 27 6.03269 27 13.4615C27 20.8904 33.0499 26.9231 40.5 26.9231C47.9501 26.9231 54 20.8904 54 13.4615C54 6.03269 47.9501 0 40.5 0Z" fill="#0EEBAA"/>
</svg>
